<svg width="172" height="43" viewBox="0 0 172 43" fill="none" xmlns="http://www.w3.org/2000/svg">
<path d="M28.1676 30.4147L24.9588 33.8794L24.9507 33.8694L24.2834 34.5904L14.9765 24.5419L12.625 22.0011C11.5897 20.8824 11.0195 19.3961 11.0195 17.8154C11.0195 16.2347 11.5897 14.7484 12.625 13.6297C13.6946 12.4748 15.0978 11.8984 16.501 11.8984C17.9042 11.8984 19.3075 12.4748 20.3771 13.6297C21.4123 14.7484 21.9825 16.2347 21.9825 17.8154C21.9825 19.3961 21.4123 20.8824 20.3771 22.0011L17.8375 24.7447L20.3346 27.4422L22.8742 24.7005C24.5766 22.8628 25.5128 20.4184 25.5128 17.8194C25.5128 15.2184 24.5746 12.7761 22.8742 10.9363C21.1717 9.0965 18.9071 8.08422 16.501 8.08422C14.0949 8.08422 11.8303 9.0965 10.1279 10.9363C6.61577 14.7303 6.61577 20.9065 10.1279 24.7005L16.0986 31.1478L21.7864 37.2878L20.4499 38.7299L16.5172 34.484L8.79137 26.1426C4.54126 21.5532 4.54126 14.0836 8.79137 9.49217C10.8517 7.26675 13.5894 6.04157 16.501 6.04157C19.4126 6.04157 22.1503 7.26675 24.2107 9.49217C26.269 11.7156 27.4033 14.6721 27.4033 17.8174C27.4033 20.9627 26.269 23.9192 24.2107 26.1426L21.6711 28.8843L24.2915 31.7142L26.8311 28.9706C29.591 25.99 31.1095 22.0292 31.1095 17.8154C31.1095 13.6016 29.589 9.63879 26.8311 6.66019C24.0711 3.68158 20.4033 2.04063 16.499 2.04063C12.5967 2.04063 8.92684 3.68158 6.1669 6.66019C0.471111 12.8122 0.471111 22.8206 6.1669 28.9706L12.1377 35.4179H12.1397L17.8274 41.5579L16.4909 43L15.8318 42.287L4.83243 30.4127C1.71663 27.0485 0 22.5736 0 17.8154C0 13.0573 1.71663 8.58232 4.83243 5.21808C7.94823 1.85384 12.0932 0 16.501 0C20.9088 0 25.0518 1.85384 28.1676 5.21808C31.2834 8.58232 33 13.0573 33 17.8154C33 22.5736 31.2834 27.0485 28.1676 30.4127V30.4147ZM19.0406 15.0738C17.6394 13.5614 15.3607 13.5614 13.9615 15.0738C12.5603 16.5862 12.5603 19.0466 13.9615 20.559L16.501 23.3006L19.0406 20.559C20.4418 19.0466 20.4418 16.5862 19.0406 15.0738Z" fill="#FAF9F6"/>
<path d="M46.724 34H43.34V17.44C43.34 14.608 44.096 12.4 45.608 10.816C47.144 9.232 49.172 8.44 51.692 8.44C54.38 8.44 56.456 9.208 57.92 10.744C59.408 12.28 60.152 14.236 60.152 16.612C60.152 18.1 59.876 19.396 59.324 20.5C58.796 21.604 58.076 22.456 57.164 23.056C56.252 23.656 55.28 24.1 54.248 24.388C53.216 24.676 52.136 24.82 51.008 24.82H48.308V21.652H51.404C53.012 21.652 54.272 21.172 55.184 20.212C56.12 19.228 56.588 18.004 56.588 16.54C56.588 15.1 56.156 13.924 55.292 13.012C54.452 12.076 53.24 11.608 51.656 11.608C50.12 11.608 48.908 12.136 48.02 13.192C47.156 14.224 46.724 15.592 46.724 17.296V34ZM64.4858 34V17.62C64.4858 14.716 65.1938 12.46 66.6098 10.852C68.0498 9.244 70.0898 8.44 72.7298 8.44C75.3938 8.44 77.4338 9.088 78.8498 10.384C80.2898 11.68 81.0098 13.504 81.0098 15.856C81.0098 17.368 80.6498 18.604 79.9298 19.564C79.2098 20.524 77.9858 21.28 76.2578 21.832V21.976C78.0578 22.672 79.2578 23.668 79.8578 24.964C80.4818 26.236 80.7938 28.348 80.7938 31.3V34H77.4098V29.392C77.4098 27.568 76.8938 26.152 75.8618 25.144C74.8298 24.112 73.3418 23.596 71.3978 23.596H69.4538V20.428H71.5058C73.8098 20.428 75.4058 19.96 76.2938 19.024C77.1818 18.088 77.6258 16.972 77.6258 15.676C77.6258 14.452 77.1818 13.468 76.2938 12.724C75.4298 11.98 74.2778 11.608 72.8378 11.608C71.1818 11.608 69.9338 12.076 69.0938 13.012C68.2778 13.948 67.8698 15.484 67.8698 17.62V34H64.4858ZM100.206 34H85.8777V14.812C85.8777 13.036 86.4417 11.608 87.5697 10.528C88.3377 9.808 89.2017 9.34 90.1617 9.124C91.1217 8.908 92.2977 8.8 93.6897 8.8H100.206V11.968H93.2217C90.5817 11.968 89.2617 13.072 89.2617 15.28V19.384H97.5777V22.552H89.2617V30.832H100.206V34ZM108.263 34H104.879V17.44C104.879 14.608 105.635 12.4 107.147 10.816C108.683 9.232 110.711 8.44 113.231 8.44C115.919 8.44 117.995 9.208 119.459 10.744C120.947 12.28 121.691 14.236 121.691 16.612C121.691 18.1 121.415 19.396 120.863 20.5C120.335 21.604 119.615 22.456 118.703 23.056C117.791 23.656 116.819 24.1 115.787 24.388C114.755 24.676 113.675 24.82 112.547 24.82H109.847V21.652H112.943C114.551 21.652 115.811 21.172 116.723 20.212C117.659 19.228 118.127 18.004 118.127 16.54C118.127 15.1 117.695 13.924 116.831 13.012C115.991 12.076 114.779 11.608 113.195 11.608C111.659 11.608 110.447 12.136 109.559 13.192C108.695 14.224 108.263 15.592 108.263 17.296V34ZM125.845 21.4C125.869 17.392 126.973 14.296 129.157 12.112C131.365 9.904 134.401 8.8 138.265 8.8H140.605V11.968H137.833C135.169 11.968 133.117 12.856 131.677 14.632C130.261 16.384 129.529 18.64 129.481 21.4C129.529 24.16 130.261 26.428 131.677 28.204C133.117 29.956 135.169 30.832 137.833 30.832H140.605V34H138.265C134.401 34 131.365 32.908 129.157 30.724C126.973 28.516 125.869 25.408 125.845 21.4ZM165.531 21.508C165.507 20.164 165.303 18.892 164.919 17.692C164.559 16.492 164.019 15.448 163.299 14.56C162.603 13.648 161.751 12.928 160.743 12.4C159.735 11.872 158.595 11.608 157.323 11.608C156.051 11.608 154.911 11.872 153.903 12.4C152.895 12.928 152.031 13.648 151.311 14.56C150.615 15.448 150.075 16.492 149.691 17.692C149.331 18.892 149.139 20.164 149.115 21.508C149.139 22.876 149.331 24.148 149.691 25.324C150.075 26.5 150.615 27.52 151.311 28.384C152.031 29.248 152.895 29.932 153.903 30.436C154.911 30.94 156.051 31.192 157.323 31.192C158.595 31.192 159.735 30.94 160.743 30.436C161.751 29.932 162.603 29.248 163.299 28.384C164.019 27.52 164.559 26.5 164.919 25.324C165.303 24.148 165.507 22.876 165.531 21.508ZM145.479 21.508C145.503 19.516 145.803 17.716 146.379 16.108C146.955 14.5 147.759 13.132 148.791 12.004C149.823 10.852 151.059 9.976 152.499 9.376C153.939 8.752 155.547 8.44 157.323 8.44C159.075 8.44 160.671 8.752 162.111 9.376C163.575 9.976 164.823 10.852 165.855 12.004C166.887 13.132 167.691 14.5 168.267 16.108C168.843 17.716 169.143 19.516 169.167 21.508C169.143 23.5 168.843 25.288 168.267 26.872C167.715 28.456 166.923 29.8 165.891 30.904C164.859 32.008 163.611 32.86 162.147 33.46C160.707 34.06 159.099 34.36 157.323 34.36C155.547 34.36 153.927 34.06 152.463 33.46C151.023 32.86 149.787 32.008 148.755 30.904C147.723 29.8 146.919 28.456 146.343 26.872C145.791 25.288 145.503 23.5 145.479 21.508Z" fill="#FAF9F6"/>
</svg>
